# xmcd
#
# Track frame offsets: 
#        150
#        22550
#        41675
#        68212
#        88187
#        104285
#        117412
#        125162
#        140325
#        153900
#        172175
#        187475
#        206875
#        220550
#        236987
#        263162
#
# Disc length: 3677 seconds
#
# Revision: 2
# Processed by: cddbd v1.5.2PL0 Copyright (c) Steve Scherf et al.
# Submitted via: ExactAudioCopy v0.99pb4
#
DISCID=f20e5b10
DTITLE=Axel Zwingenberger - Between Hamburg and Hollywood
DYEAR=1992
DGENRE=blues
TTITLE0=Boogie Call Blues
TTITLE1=Ridin' the Rocket
TTITLE2=Joe's Lonesome Blues
TTITLE3=Don't be mad at Me, pretty Mama
TTITLE4=Palm Tree
TTITLE5=Funky Stuff
TTITLE6=Freeway Driver
TTITLE7=Struttin' the Boogie
TTITLE8=Hollywood Special
TTITLE9=L and A Groove
TTITLE10=Three O'Clock Stomp
TTITLE11=Sunset and Gower Blues
TTITLE12=Boogie Woogie Mess Around
TTITLE13=Lonesome Sundown
TTITLE14=Crawdad Hole
TTITLE15=Watch the Boogie
EXTD=
EXTT0=
EXTT1=
EXTT2=
EXTT3=
EXTT4=
EXTT5=
EXTT6=
EXTT7=
EXTT8=
EXTT9=
EXTT10=
EXTT11=
EXTT12=
EXTT13=
EXTT14=
EXTT15=
PLAYORDER=
